<?xml version="1.0" encoding="UTF-8"?>
<svg version="1.1" xmlns="http://www.w3.org/2000/svg" width="875" height="193">
<path d="M0 0 C0.717323 -0.00478363 1.434646 -0.00956726 2.17370605 -0.01449585 C3.68662719 -0.01789036 5.19962212 -0.00871885 6.71240234 0.01220703 C9.02477956 0.03898756 11.3323045 0.01245316 13.64453125 -0.01953125 C15.11719818 -0.01622706 16.5898621 -0.00982062 18.0625 0 C18.75114136 -0.01012115 19.43978271 -0.02024231 20.14929199 -0.03067017 C23.692137 0.05557 25.24120312 0.38743263 27.83764648 2.86376953 C29.48045797 5.5800803 30.85247016 8.21351244 32.09765625 11.1328125 C32.57283691 12.2369751 33.04801758 13.3411377 33.53759766 14.47875977 C34.05651761 15.70710848 34.57522698 16.93554617 35.09375 18.1640625 C35.6561633 19.48063314 36.21917154 20.79694976 36.78271484 22.11303711 C38.36457135 25.81491671 39.93490172 29.52158483 41.50213623 33.22967529 C42.56271662 35.73849736 43.62516357 38.24652248 44.68798828 40.75439453 C49.90985762 53.0796281 55.1087201 65.4145143 60.30413818 77.75091553 C63.46559535 85.25617238 66.6310592 92.75973788 69.79760742 100.2628479 C70.96433252 103.02859078 72.12969506 105.7949049 73.29492188 108.5612793 C77.53643486 118.62303231 81.81647264 128.66710121 86.13671875 138.6953125 C87.52578015 141.92812671 88.91423589 145.1612004 90.30252075 148.39434814 C91.19724853 150.47280164 92.09504353 152.54993773 92.99606323 154.62567139 C94.24703657 157.50770809 95.48774144 160.39397334 96.7265625 163.28125 C97.09851242 164.13021851 97.47046234 164.97918701 97.85368347 165.85388184 C99.8155094 170.45571369 101.23613447 174.60391079 101.53125 179.6640625 C100.16696607 182.58752807 98.80374091 184.39157159 96.53125 186.6640625 C93.56608105 186.92691803 93.56608105 186.92691803 89.68070984 186.94494629 C88.96790716 186.95088853 88.25510447 186.95683078 87.52070171 186.96295309 C85.12011815 186.98036641 82.7197336 186.98334678 80.3190918 186.98632812 C78.60278901 186.99558176 76.88649036 187.00563071 75.17019653 187.01641846 C70.49864224 187.04269769 65.82714547 187.05556247 61.15552878 187.06443977 C58.23845691 187.07029646 55.32140086 187.07850517 52.40433693 187.08744812 C43.28203804 187.11480677 34.15977518 187.13413556 25.03743809 187.1418519 C14.49861808 187.15081473 3.96031669 187.18591352 -6.5783456 187.24385309 C-14.71853495 187.28705625 -22.85857823 187.30725882 -30.99888104 187.30993414 C-35.86343784 187.31203254 -40.72750741 187.32389485 -45.59194374 187.35957336 C-50.16807065 187.39248321 -54.74334283 187.39687254 -59.31954575 187.37929535 C-60.99936776 187.37775171 -62.67923522 187.3864787 -64.35894203 187.40621185 C-66.65273636 187.43157934 -68.94348671 187.41994864 -71.23725891 187.39904785 C-73.16221427 187.40344753 -73.16221427 187.40344753 -75.12605762 187.4079361 C-79.8350213 186.36001623 -80.88123968 184.67999478 -83.46875 180.6640625 C-83.62473648 173.89992154 -80.90157172 168.34009601 -78.09375 162.2890625 C-77.49433594 160.93748047 -77.49433594 160.93748047 -76.8828125 159.55859375 C-73.85907775 152.924281 -73.85907775 152.924281 -70.46875 150.6640625 C-68.24113941 150.40234947 -68.24113941 150.40234947 -65.59028625 150.3855896 C-64.58487793 150.37442612 -63.5794696 150.36326263 -62.54359436 150.35176086 C-61.4416423 150.34960068 -60.33969025 150.34744049 -59.2043457 150.34521484 C-58.04323273 150.33516922 -56.88211975 150.3251236 -55.68582153 150.31477356 C-51.83872992 150.28382347 -47.99170827 150.26687341 -44.14453125 150.25 C-41.48079905 150.23129786 -38.81708381 150.21182234 -36.15336609 150.1913147 C-29.85299946 150.14451022 -23.55261581 150.10777425 -17.25216407 150.07464182 C-10.07926092 150.03643218 -2.90644871 149.98701902 4.26637781 149.93665767 C19.02126492 149.83331306 33.7762174 149.74406089 48.53125 149.6640625 C33.4866187 113.20619521 33.4866187 113.20619521 18.34375 76.7890625 C17.46672522 74.6862278 16.58977255 72.58336302 15.71289062 70.48046875 C13.65315644 65.54132723 11.59251285 60.60256624 9.53125 55.6640625 C7.48460859 57.71070391 6.8431852 58.98640906 5.76635742 61.62182617 C5.42762604 62.44360352 5.08889465 63.26538086 4.73989868 64.11206055 C4.3758493 65.00965088 4.01179993 65.90724121 3.63671875 66.83203125 C3.2526889 67.76740723 2.86865906 68.7027832 2.47299194 69.66650391 C1.64695238 71.67982362 0.82311914 73.69404968 0.00125122 75.70907593 C-1.28211608 78.85368464 -2.57266128 81.99525198 -3.86547852 85.13598633 C-7.44062075 93.82441779 -11.00458458 102.51729506 -14.54420471 111.22026062 C-15.72086853 114.10722049 -16.90640726 116.99046903 -18.09457397 119.87271118 C-18.63257579 121.18434978 -19.16618285 122.49780022 -19.69522095 123.81307983 C-20.42029827 125.61537679 -21.16090323 127.41140395 -21.90234375 129.20703125 C-22.30509521 130.19727295 -22.70784668 131.18751465 -23.12280273 132.20776367 C-25.19341407 135.98654485 -27.43939147 137.32094299 -31.46875 138.6640625 C-35.23517138 138.92158225 -39.00695624 138.89543551 -42.78125 138.9140625 C-44.33102539 138.945 -44.33102539 138.945 -45.91210938 138.9765625 C-51.47702275 139.00511882 -55.74047269 138.96537194 -60.46875 135.6640625 C-62.86513849 132.06947977 -63.17118435 129.80833383 -62.46875 125.6640625 C-61.05367399 121.3623283 -59.22363754 117.2448448 -57.40625 113.1015625 C-56.83712093 111.77820957 -56.26930183 110.45429269 -55.70263672 109.12988281 C-54.39710301 106.08315736 -53.08442147 103.03962351 -51.76806641 99.99755859 C-49.15789535 93.95548803 -46.58452557 87.89789867 -44.01171875 81.83984375 C-40.05452112 72.52350458 -36.08838632 63.21105628 -32.11328125 53.90234375 C-29.02406695 46.66809715 -25.94263254 39.43082636 -22.8885498 32.18167114 C-21.50563785 28.90024064 -20.11722641 25.62115428 -18.72796631 22.34240723 C-18.10440855 20.86646759 -17.48360894 19.38935917 -16.86578369 17.91101074 C-16.02830734 15.90763594 -15.18133823 13.90853799 -14.33203125 11.91015625 C-13.87094971 10.81372803 -13.40986816 9.7172998 -12.93481445 8.58764648 C-9.66372237 2.0645278 -7.3615099 -0.10819417 0 0 Z " fill="#262223" transform="translate(713.46875,2.3359375)"/>
<path d="M0 0 C2.22904225 -0.00656387 4.45363022 -0.06106288 6.68188477 -0.11791992 C8.10569773 -0.12672305 9.52953175 -0.13267656 10.95336914 -0.13549805 C12.24235107 -0.14782471 13.53133301 -0.16015137 14.859375 -0.17285156 C19.64131965 0.83971173 20.62813488 2.53999975 23.30102539 6.5559082 C24.13459029 9.87174648 23.83493748 11.61857079 22.14624023 14.58325195 C20.50717087 16.97845059 18.77325887 19.26723373 16.98852539 21.5559082 C16.35205078 22.39460449 15.71557617 23.23330078 15.05981445 24.09741211 C13.15616511 26.59636892 11.23267029 29.07855197 9.30102539 31.5559082 C8.77911621 32.22847656 8.25720703 32.90104492 7.71948242 33.59399414 C5.45605102 36.50641347 3.17735271 39.40603083 0.88305664 42.29418945 C-1.69746016 45.54434018 -4.23523254 48.82596632 -6.76147461 52.1184082 C-7.17260498 52.6541748 -7.58373535 53.18994141 -8.00732422 53.74194336 C-8.83115387 54.81602364 -9.65480379 55.8902418 -10.47827148 56.96459961 C-12.48554855 59.58128599 -14.4991359 62.19311359 -16.51147461 64.8059082 C-16.90979492 65.32540039 -17.30811523 65.84489258 -17.71850586 66.38012695 C-20.19062015 69.60394998 -22.68017554 72.81315302 -25.18334961 76.01293945 C-26.37614028 77.54803173 -27.5688494 79.08318738 -28.76147461 80.6184082 C-29.33422119 81.34511719 -29.90696777 82.07182617 -30.49707031 82.82055664 C-31.02905029 83.50794922 -31.56103027 84.1953418 -32.10913086 84.90356445 C-32.58487549 85.51208252 -33.06062012 86.12060059 -33.55078125 86.74755859 C-34.83471797 88.7696975 -35.47970517 90.16406348 -35.69897461 92.5559082 C-34.77921376 94.46804048 -34.77921376 94.46804048 -33.22631836 96.2512207 C-32.66332031 96.95802979 -32.10032227 97.66483887 -31.52026367 98.39306641 C-30.89861328 99.1480542 -30.27696289 99.90304199 -29.63647461 100.6809082 C-28.33796341 102.30173433 -27.03979602 103.92283595 -25.74194336 105.54418945 C-25.0708252 106.3738623 -24.39970703 107.20353516 -23.70825195 108.05834961 C-20.57215 111.95656625 -17.51212983 115.91280431 -14.44897461 119.8684082 C-13.27724546 121.37503206 -12.1053738 122.8815451 -10.93334961 124.38793945 C-7.37825216 128.96455703 -3.847015 133.55911991 -0.32006836 138.1574707 C1.654319 140.72471394 3.64493112 143.27882406 5.64086914 145.8293457 C9.21123481 150.39183241 12.76166915 154.96933419 16.30102539 159.5559082 C17.1339209 160.63050293 17.1339209 160.63050293 17.98364258 161.72680664 C19.53972326 163.74380948 21.07907516 165.77242274 22.61352539 167.8059082 C23.07557373 168.40129395 23.53762207 168.99667969 24.01367188 169.61010742 C26.69945608 173.21342748 28.08936175 176.04041713 28.30102539 180.5559082 C26.69690691 184.08496887 25.55943177 185.38363728 22.30102539 187.5559082 C17.76905794 187.99001133 13.22765367 187.96998269 8.67749023 187.98144531 C6.44020776 187.99333285 4.2056937 188.04250828 1.96899414 188.09301758 C0.54062214 188.1024837 -0.88776675 188.10971783 -2.31616211 188.11450195 C-4.25918213 188.13468384 -4.25918213 188.13468384 -6.24145508 188.15527344 C-10.59682944 187.40026397 -11.92294585 185.91735592 -14.69897461 182.5559082 C-15.23707764 181.92281738 -15.77518066 181.28972656 -16.32958984 180.63745117 C-16.80082275 180.03046387 -17.27205566 179.42347656 -17.75756836 178.7980957 C-18.30098877 178.09998779 -18.84440918 177.40187988 -19.40429688 176.68261719 C-19.97591553 175.93955322 -20.54753418 175.19648926 -21.13647461 174.4309082 C-21.74483154 173.64466064 -22.35318848 172.85841309 -22.97998047 172.04833984 C-27.91404039 165.64237315 -32.72016963 159.14643634 -37.49731445 152.62304688 C-41.5307464 147.12069107 -45.6187286 141.66395117 -49.76147461 136.2434082 C-50.28555908 135.55625732 -50.80964355 134.86910645 -51.34960938 134.16113281 C-54.37736779 130.21275563 -57.48759178 126.35653559 -60.69897461 122.5559082 C-67.85276023 131.64683513 -74.92747151 140.78387772 -81.76147461 150.1184082 C-88.28454358 159.02680582 -94.93253371 167.83094437 -101.69897461 176.5559082 C-102.13032715 177.11262207 -102.56167969 177.66933594 -103.00610352 178.24291992 C-109.32531973 186.36908076 -109.32531973 186.36908076 -111.69897461 187.5559082 C-116.22991834 187.81452371 -120.76461165 187.82692343 -125.30200195 187.85107422 C-127.55864152 187.86829122 -129.81381698 187.91217943 -132.07006836 187.95629883 C-133.50625551 187.9664258 -134.94245511 187.97494189 -136.37866211 187.98168945 C-138.33908447 188.00356323 -138.33908447 188.00356323 -140.33911133 188.02587891 C-144.23124814 187.48145489 -145.34867679 186.62874206 -147.69897461 183.5559082 C-149.13201525 180.68982692 -149.00541616 178.74290037 -148.69897461 175.5559082 C-145.69633856 170.60406689 -142.10760172 166.07465182 -138.57397461 161.4934082 C-137.99776367 160.74317383 -137.42155273 159.99293945 -136.82788086 159.2199707 C-135.12008916 156.99719081 -133.40983238 154.77632859 -131.69897461 152.5559082 C-130.82645856 151.4218861 -129.9540509 150.2877806 -129.08178711 149.15356445 C-127.48196714 147.07379849 -125.88170049 144.99437606 -124.28100586 142.9152832 C-119.63057141 136.86953698 -115.00364217 130.80574605 -110.37231445 124.74536133 C-107.64864197 121.18161829 -104.92375798 117.6188019 -102.19897461 114.0559082 C-101.11563523 112.63924616 -100.0323019 111.22257949 -98.94897461 109.8059082 C-79.44897461 84.3059082 -59.94897461 58.8059082 -40.44897461 33.3059082 C-39.64351196 32.25234131 -39.64351196 32.25234131 -38.82177734 31.17749023 C-37.74646988 29.77167982 -36.67046911 28.36639943 -35.59375 26.96166992 C-32.75648545 23.25812089 -29.93452265 19.54407464 -27.13256836 15.8137207 C-26.54733398 15.03834961 -25.96209961 14.26297852 -25.35913086 13.46411133 C-24.23877366 11.97919345 -23.12264748 10.49107058 -22.01147461 8.99926758 C-21.50487305 8.32959961 -20.99827148 7.65993164 -20.47631836 6.9699707 C-20.03537842 6.3816748 -19.59443848 5.79337891 -19.14013672 5.18725586 C-13.78420988 -0.87547549 -7.56103374 -0.00249841 0 0 Z " fill="#262223" transform="translate(536.698974609375,2.444091796875)"/>
<path d="M0 0 C4.15137169 4.43968327 2.98867802 11.23495604 2.87890625 16.88671875 C2.88986328 18.11841797 2.90082031 19.35011719 2.91210938 20.61914062 C2.83816343 29.665194 2.83816343 29.665194 0.50219727 32.61572266 C-2.48584441 34.95128791 -5.75225442 35.97396557 -9.30859375 37.13671875 C-16.27003338 39.58624532 -21.98741211 42.53857915 -27.68359375 47.32421875 C-28.31523437 47.845 -28.946875 48.36578125 -29.59765625 48.90234375 C-39.08287689 57.51007701 -44.90863278 70.31369698 -45.890625 82.99853516 C-46.78529935 102.02634146 -44.46824004 118.02343962 -31.90625 133.00390625 C-25.04600591 140.16556704 -16.82434301 143.84815917 -7.68359375 147.32421875 C0.10210131 150.37797194 0.10210131 150.37797194 2.31640625 153.32421875 C2.99487865 157.75085671 2.82570519 162.22642996 2.81640625 166.69921875 C2.84476562 167.9315625 2.873125 169.16390625 2.90234375 170.43359375 C2.92424848 180.53167408 2.92424848 180.53167408 0.046875 183.6328125 C-4.45944986 186.42428412 -7.51852703 186.21235827 -12.68359375 185.32421875 C-38.07546088 178.92765509 -57.5983249 164.23666421 -71.68359375 142.32421875 C-85.28143104 119.53306104 -87.78619919 91.60476614 -81.71875 66.046875 C-77.98081053 51.66350667 -71.45346048 39.56059824 -61.68359375 28.32421875 C-61.22855469 27.72609375 -60.77351563 27.12796875 -60.3046875 26.51171875 C-50.3469489 13.67069464 -16.30753672 -10.18330896 0 0 Z " fill="#272324" transform="translate(277.68359375,4.67578125)"/>
<path d="M0 0 C1.17949219 -0.00322266 2.35898437 -0.00644531 3.57421875 -0.00976562 C5.40919922 0.03180664 5.40919922 0.03180664 7.28125 0.07421875 C8.50457031 0.05939453 9.72789063 0.04457031 10.98828125 0.02929688 C20.9284861 0.12163758 20.9284861 0.12163758 24.0625 3.1171875 C26.31973759 6.59025534 26.90605551 9.1213308 26.91255188 13.17306519 C26.91656006 14.07554489 26.92056824 14.9780246 26.92469788 15.90785217 C26.92416916 16.89587326 26.92364044 17.88389435 26.9230957 18.90185547 C26.92657013 19.94455093 26.93004456 20.9872464 26.93362427 22.0615387 C26.94098448 24.33032573 26.94632844 26.59911997 26.94991493 28.86791611 C26.95708324 32.46751471 26.97275556 36.06697721 26.99125671 39.66653442 C27.04368867 49.90299542 27.09164004 60.13938436 27.10717773 70.37597656 C27.11730353 76.63657263 27.14675103 82.89682972 27.18849754 89.15729141 C27.20075367 91.53569083 27.20593873 93.91413827 27.20369911 96.29256821 C27.15079467 119.9968296 27.15079467 119.9968296 37.78125 140.76171875 C43.44286635 145.90621109 49.43952897 149.46293172 56.6875 151.875 C59.00479246 152.85639065 60.20375144 153.81389278 61.78125 155.76171875 C63.34901025 160.46499949 63.00704311 165.21061647 63.03125 170.13671875 C63.051875 171.17828125 63.0725 172.21984375 63.09375 173.29296875 C63.14311728 182.94427133 63.14311728 182.94427133 59.78125 186.76171875 C55.75793817 189.44392664 52.43059602 189.30425691 47.78125 188.76171875 C28.15062415 184.18945304 11.46396239 171.65336574 0.78125 154.76171875 C-7.90884121 139.97301483 -11.33984858 124.84301284 -11.41162109 107.78100586 C-11.41979858 106.69722153 -11.42797607 105.61343719 -11.43640137 104.49681091 C-11.46111939 100.92756694 -11.47773042 97.35836216 -11.4921875 93.7890625 C-11.49751118 92.56732393 -11.50283485 91.34558537 -11.50831985 90.08682442 C-11.53498357 83.62844598 -11.55438594 77.17008649 -11.56884766 70.71166992 C-11.58222034 65.36806153 -11.60947843 60.02485435 -11.65087891 54.68139648 C-11.70011381 48.22180826 -11.72495623 41.76256517 -11.73207474 35.30279732 C-11.73879505 32.84318836 -11.75403714 30.38358736 -11.77796555 27.92408562 C-11.80951908 24.48665779 -11.80966874 21.05057122 -11.80224609 17.61303711 C-11.81865143 16.59832336 -11.83505676 15.58360962 -11.85195923 14.53814697 C-11.81203236 10.02387286 -11.72680531 6.76343405 -8.8677063 3.13104248 C-5.67886704 0.27882762 -4.22911098 0.0015875 0 0 Z " fill="#282425" transform="translate(15.21875,2.23828125)"/>
<path d="M0 0 C1.17949219 -0.00644531 2.35898438 -0.01289062 3.57421875 -0.01953125 C4.79753906 -0.00019531 6.02085937 0.01914062 7.28125 0.0390625 C8.50457031 0.01972656 9.72789062 0.00039063 10.98828125 -0.01953125 C12.16777344 -0.01308594 13.34726563 -0.00664063 14.5625 0 C15.63564453 0.00563965 16.70878906 0.0112793 17.81445312 0.01708984 C21.97447672 0.92427076 23.22047529 2.25156084 25.78125 5.6640625 C26.52272848 9.27387313 26.45410258 12.82817435 26.41235352 16.50268555 C26.41950882 17.59616302 26.42666412 18.6896405 26.43403625 19.81625366 C26.45095953 23.43651994 26.43148108 27.05555296 26.41015625 30.67578125 C26.41098538 33.2038432 26.41344642 35.7319051 26.41746521 38.25996399 C26.42032675 43.5687518 26.40613364 48.87710636 26.37817383 54.18579102 C26.34633572 60.27679979 26.34605315 66.36716616 26.3633886 72.45821923 C26.37941935 78.3555712 26.37230007 84.25269132 26.35545158 90.15003395 C26.35031342 92.63875627 26.35069773 95.12749701 26.35699654 97.61621666 C26.4113849 132.05991249 26.4113849 132.05991249 18.03125 147.1015625 C17.51800171 148.07210571 17.51800171 148.07210571 16.99438477 149.06225586 C6.88025087 167.69841986 -8.14066368 180.81528657 -28.40625 187.5390625 C-32.84021499 188.72240364 -37.71748388 189.93343625 -42.21875 188.6640625 C-44.89481415 187.00544025 -45.81045317 186.36831921 -47.21875 183.6640625 C-47.97015049 179.1548901 -47.91584688 174.72539198 -47.84375 170.1640625 C-47.86308594 168.94074219 -47.88242188 167.71742188 -47.90234375 166.45703125 C-47.85382418 157.57794973 -47.85382418 157.57794973 -44.9765625 153.4375 C-42.449729 151.81259573 -40.32044757 150.69303199 -37.46875 149.7890625 C-28.27725275 146.35592886 -21.66480608 140.40706912 -17.21875 131.6640625 C-12.8570756 121.193248 -12.06775438 111.30252333 -12.09277344 100.08300781 C-12.0909053 99.06560013 -12.08903717 98.04819244 -12.08711243 96.99995422 C-12.0831308 94.80655417 -12.08103566 92.61315003 -12.08065033 90.4197464 C-12.07721307 85.75444853 -12.05583406 81.08928737 -12.03541946 76.42403793 C-11.99747344 67.75191002 -11.96614396 59.07993551 -11.96826172 50.40771484 C-11.96904747 44.36063253 -11.94575481 38.31406156 -11.9063797 32.26711273 C-11.89590843 29.96583096 -11.89440389 27.66449028 -11.90203094 25.36319733 C-11.91162389 22.15074375 -11.89052822 18.93985145 -11.86230469 15.72753906 C-11.87250137 14.7778273 -11.88269806 13.82811554 -11.89320374 12.84962463 C-11.82138478 8.29759859 -11.69915821 6.29416168 -8.86395264 2.57553101 C-5.66712345 0.26544775 -3.91776476 0.02058885 0 0 Z " fill="#252122" transform="translate(140.21875,2.3359375)"/>
<path d="M0 0 C1.33504074 -0.01577087 1.33504074 -0.01577087 2.697052 -0.03186035 C5.63338833 -0.05822696 8.56754865 -0.04080143 11.50390625 -0.02050781 C13.54744889 -0.02455038 15.59098872 -0.03037418 17.63452148 -0.03790283 C21.91515604 -0.0467448 26.19503884 -0.0339041 30.47558594 -0.00585938 C35.96062555 0.02832674 41.4439038 0.00864158 46.92887878 -0.02729416 C51.14804336 -0.04898357 55.36679083 -0.04207143 59.58596802 -0.0265274 C61.60816659 -0.02252706 63.63040313 -0.02742931 65.65255737 -0.04140472 C68.48032808 -0.05665932 71.30525361 -0.03340203 74.1328125 0 C74.96724884 -0.01214539 75.80168518 -0.02429077 76.66140747 -0.0368042 C82.2003844 0.08431203 82.2003844 0.08431203 84.70580959 2.08644676 C87.14528239 4.91754207 88.69933472 7.26669869 88.6953125 11.03417969 C88.70038818 11.81438477 88.70546387 12.59458984 88.71069336 13.3984375 C88.68370361 14.2244043 88.65671387 15.05037109 88.62890625 15.90136719 C88.60292358 17.20992676 88.60292358 17.20992676 88.57641602 18.54492188 C87.68381683 43.88292832 78.56669021 65.4562501 61.06640625 83.77636719 C60.25623047 84.69869141 60.25623047 84.69869141 59.4296875 85.63964844 C48.21530446 97.92744849 29.63344782 106.80297932 13.2734375 109.18261719 C12.48324219 109.21355469 11.69304687 109.24449219 10.87890625 109.27636719 C10.08097656 109.32792969 9.28304688 109.37949219 8.4609375 109.43261719 C5.51516056 108.6252917 3.89303802 107.27177204 2.05444336 104.84472656 C-0.05726797 100.42406475 0.35446304 95.57563244 0.44140625 90.77636719 C0.42207031 89.70902344 0.40273438 88.64167969 0.3828125 87.54199219 C0.43690759 78.84350238 0.43690759 78.84350238 3.16015625 75.17871094 C6.48068492 72.4339191 9.04309238 71.45172383 13.19140625 70.33886719 C24.65955322 66.92574489 35.0112879 60.81130897 41.02412415 50.06465149 C41.97484383 48.21027958 42.89466801 46.34432575 43.80078125 44.46777344 C44.11772949 43.82231567 44.43467773 43.17685791 44.76123047 42.51184082 C45.53436516 40.93566716 46.30105679 39.35633581 47.06640625 37.77636719 C46.37593704 37.77716278 45.68546783 37.77795837 44.97407532 37.77877808 C37.78735602 37.78121584 30.60171762 37.74204692 23.4152832 37.67871094 C20.73315462 37.65720196 18.05158999 37.6504378 15.36938477 37.65625 C11.51374689 37.65910444 7.660056 37.62381131 3.8046875 37.58105469 C2.60556229 37.59014862 1.40643707 37.59924255 0.17097473 37.60861206 C-7.84399616 37.46868018 -7.84399616 37.46868018 -10.80859375 35.58502197 C-13.70704435 32.41819157 -14.57239994 29.34247218 -14.59765625 25.15136719 C-14.60410156 24.11496094 -14.61054688 23.07855469 -14.6171875 22.01074219 C-14.59785156 20.94339844 -14.57851563 19.87605469 -14.55859375 18.77636719 C-14.57792969 17.70902344 -14.59726562 16.64167969 -14.6171875 15.54199219 C-14.61074219 14.50558594 -14.60429687 13.46917969 -14.59765625 12.40136719 C-14.5920166 11.46550781 -14.58637695 10.52964844 -14.58056641 9.56542969 C-12.63558156 1.1807101 -7.64113668 -0.11121825 0 0 Z " fill="#262223" transform="translate(293.93359375,81.2236328125)"/>
<path d="M0 0 C0.98548828 -0.02900391 1.97097656 -0.05800781 2.98632812 -0.08789062 C9.04401779 -0.14077845 12.60001935 0.22547178 17.1875 4.3125 C18.321101 6.57970201 18.3223502 7.83595044 18.34140015 10.35371399 C18.35000061 11.19906708 18.35860107 12.04442017 18.36746216 12.91539001 C18.37172211 13.84476883 18.37598206 14.77414764 18.38037109 15.73168945 C18.39263733 17.19774628 18.39263733 17.19774628 18.40515137 18.69342041 C18.43002533 21.9375344 18.44652584 25.1816046 18.4609375 28.42578125 C18.46626118 29.53199514 18.47158485 30.63820904 18.47706985 31.77794456 C18.50380914 37.63214806 18.52318225 43.48633016 18.53759766 49.34057617 C18.55425444 55.39369156 18.59903914 61.44626345 18.6499691 67.49917316 C18.68358909 72.14799135 18.69516933 76.79667965 18.70082474 81.44560814 C18.70755087 83.6771784 18.72280803 85.90873971 18.74671555 88.14019203 C18.77825874 91.26229059 18.77841988 94.38291155 18.77099609 97.50512695 C18.78740143 98.42843307 18.80380676 99.3517392 18.82070923 100.30302429 C18.7768866 104.80099819 18.64819879 106.70997479 15.83744812 110.38601685 C12.62201486 112.72360148 10.881121 112.94405777 6.93359375 112.94140625 C5.74958984 112.94333984 4.56558594 112.94527344 3.34570312 112.94726562 C2.11787109 112.92341797 0.89003906 112.89957031 -0.375 112.875 C-1.60669922 112.88595703 -2.83839844 112.89691406 -4.10742188 112.90820312 C-13.17911123 112.83404763 -13.17911123 112.83404763 -16.13256836 110.40209961 C-18.45510737 107.51318646 -18.93866095 105.93873153 -18.96640015 102.30924988 C-18.97500061 101.47231094 -18.98360107 100.63537201 -18.99246216 99.77307129 C-18.99672211 98.85304321 -19.00098206 97.93301514 -19.00537109 96.98510742 C-19.01354858 96.01748978 -19.02172607 95.04987213 -19.03015137 94.05293274 C-19.05502472 90.84128443 -19.0715257 87.62968035 -19.0859375 84.41796875 C-19.09126118 83.32278742 -19.09658485 82.22760609 -19.10206985 81.09923744 C-19.12880891 75.30338871 -19.14818207 69.50756159 -19.16259766 63.71166992 C-19.17925416 57.71908615 -19.22403866 51.72705141 -19.2749691 45.73467541 C-19.3085902 41.13218031 -19.32016945 36.52981638 -19.32582474 31.92720985 C-19.33255059 29.71796786 -19.34780704 27.5087349 -19.37171555 25.29961205 C-19.40326115 22.208642 -19.40341956 19.11916429 -19.39599609 16.02807617 C-19.41240143 15.11412079 -19.42880676 14.20016541 -19.44570923 13.2585144 C-19.40173174 8.78912914 -19.27327004 6.90974827 -16.46353149 3.26777649 C-11.32652486 -0.52103866 -6.13556872 0.05949162 0 0 Z " fill="#272324" transform="translate(853.8125,76.6875)"/>
<path d="M0 0 C23.63044722 4.17195227 44.51511223 16.84893689 58.6484375 36.44921875 C68.91804947 51.93901352 68.91804947 51.93901352 67.8984375 58.51171875 C65.84833513 62.79783964 65.84833513 62.79783964 62.8984375 64.51171875 C58.05266041 65.38889127 53.30935542 65.30242963 48.3984375 65.19921875 C46.42037109 65.22145508 46.42037109 65.22145508 44.40234375 65.24414062 C34.65508776 65.16002725 34.65508776 65.16002725 31.14135742 62.14941406 C30.40119385 61.27897461 29.66103027 60.40853516 28.8984375 59.51171875 C28.05925781 58.55394531 27.22007812 57.59617188 26.35546875 56.609375 C25.71303223 55.86699585 25.71303223 55.86699585 25.05761719 55.10961914 C16.7260004 45.61042806 8.30755217 41.25710507 -3.78125 37.98046875 C-8.07166604 36.0825906 -9.19911629 34.81208855 -11.1015625 30.51171875 C-11.68393591 26.49750202 -11.70564418 22.5622638 -11.6640625 18.51171875 C-11.68791016 17.444375 -11.71175781 16.37703125 -11.73632812 15.27734375 C-11.72006004 6.55764815 -11.72006004 6.55764815 -8.80078125 2.8046875 C-5.77564995 0.23485816 -3.95048113 -0.29530175 0 0 Z " fill="#282425" transform="translate(306.1015625,2.48828125)"/>
<path d="M0 0 C0.69134033 -0.00478363 1.38268066 -0.00956726 2.0949707 -0.01449585 C3.55064176 -0.01788486 5.00638996 -0.008752 6.46191406 0.01220703 C8.68207497 0.03899704 10.89718261 0.01243603 13.1171875 -0.01953125 C14.53646942 -0.01622696 15.95574821 -0.00982031 17.375 0 C18.65761719 0.00563965 19.94023437 0.0112793 21.26171875 0.01708984 C25.56672563 0.83010782 26.92697361 2.33610631 29.6875 5.6640625 C30.22560303 6.29715332 30.76370605 6.93024414 31.31811523 7.58251953 C31.78934814 8.18950684 32.26058105 8.79649414 32.74609375 9.421875 C33.28999756 10.12062744 33.83390137 10.81937988 34.39428711 11.53930664 C35.25098999 12.65293579 35.25098999 12.65293579 36.125 13.7890625 C36.72900635 14.56950928 37.3330127 15.34995605 37.95532227 16.15405273 C43.00332796 22.70699717 47.93099178 29.3462349 52.80444336 36.02978516 C56.19370592 40.67306979 59.67314922 45.21882401 63.27709961 49.69824219 C65.22201762 52.40907477 65.83574748 54.32849423 65.6875 57.6640625 C63.75771084 62.94559072 63.75771084 62.94559072 60.97973633 64.81054688 C55.78232991 66.74580439 49.8521184 66.12120974 44.375 66.1640625 C43.06853516 66.2053125 41.76207031 66.2465625 40.41601562 66.2890625 C29.64150494 66.37670468 29.64150494 66.37670468 25.62890625 63.1015625 C24.0871582 61.44726563 24.0871582 61.44726563 22.6875 59.6640625 C22.2030542 59.08076172 21.7186084 58.49746094 21.21948242 57.89648438 C19.72959194 56.02505183 18.329062 54.10953569 16.9375 52.1640625 C15.89462969 50.73985882 14.85032958 49.31670115 13.8046875 47.89453125 C13.28487305 47.18474121 12.76505859 46.47495117 12.22949219 45.74365234 C9.90240372 42.60525153 7.48905052 39.53832887 5.0625 36.4765625 C4.16387844 35.338687 3.26543965 34.20066714 2.3671875 33.0625 C1.92729492 32.50530273 1.48740234 31.94810547 1.03417969 31.37402344 C-1.26092043 28.45979551 -3.54100436 25.53421514 -5.8125 22.6015625 C-6.6065625 21.57933594 -7.400625 20.55710937 -8.21875 19.50390625 C-13.3125 12.59503265 -13.3125 12.59503265 -13.3125 8.6640625 C-11.01702288 1.77763114 -6.91506773 0.03040545 0 0 Z " fill="#282425" transform="translate(405.3125,2.3359375)"/>
<path d="M0 0 C1.17949219 -0.00322266 2.35898437 -0.00644531 3.57421875 -0.00976562 C5.40919922 0.03180664 5.40919922 0.03180664 7.28125 0.07421875 C8.50457031 0.05939453 9.72789062 0.04457031 10.98828125 0.02929688 C19.7496319 0.11068647 19.7496319 0.11068647 23.6328125 2.5612793 C26.90045652 7.42895492 26.45914906 11.93073973 26.375 17.66796875 C26.37504028 18.82542603 26.37508057 19.9828833 26.37512207 21.17541504 C26.36976653 23.61976559 26.35218268 26.06411569 26.32324219 28.50830078 C26.28140061 32.24825708 26.28217365 35.98641168 26.2890625 39.7265625 C26.27856945 42.10287709 26.26563074 44.4791824 26.25 46.85546875 C26.24979858 47.97328735 26.24959717 49.09110596 26.24938965 50.24279785 C26.23347778 51.28738159 26.21756592 52.33196533 26.20117188 53.40820312 C26.19275269 54.32355835 26.1843335 55.23891357 26.17565918 56.18200684 C25.698601 59.30230101 24.61198373 61.2105451 22.78125 63.76171875 C18.32856399 65.98806176 12.29576364 65.03649102 7.40625 65.07421875 C6.16101563 65.10322266 4.91578125 65.13222656 3.6328125 65.16210938 C2.4365625 65.17048828 1.2403125 65.17886719 0.0078125 65.1875 C-1.63840088 65.20937378 -1.63840088 65.20937378 -3.31787109 65.23168945 C-6.88113876 64.6544053 -8.00052036 63.54340591 -10.21875 60.76171875 C-11.45200313 58.29521248 -11.37225079 56.61544995 -11.41162109 53.85644531 C-11.42768402 52.83488342 -11.44374695 51.81332153 -11.46029663 50.76080322 C-11.50472741 46.08175277 -11.54581881 41.40284491 -11.56884766 36.72363281 C-11.58540182 34.25608892 -11.61268434 31.78859287 -11.65087891 29.32128906 C-11.7056613 25.76472069 -11.72752575 22.20927731 -11.7421875 18.65234375 C-11.76485687 17.55214905 -11.78752625 16.45195435 -11.81088257 15.31842041 C-11.78729459 6.75923463 -11.78729459 6.75923463 -9.07470703 3.06616211 C-5.7426366 0.37754758 -4.23550929 0.00158991 0 0 Z " fill="#262223" transform="translate(846.21875,2.23828125)"/>
<path d="M0 0 C1.00371643 -0.00505302 1.00371643 -0.00505302 2.02770996 -0.01020813 C3.43635783 -0.00991037 4.84507246 0.00523783 6.25341797 0.03442383 C8.40143837 0.07412981 10.54328326 0.05512157 12.69140625 0.02929688 C14.06512795 0.03685679 15.43883603 0.04781112 16.8125 0.0625 C18.05322266 0.07450439 19.29394531 0.08650879 20.57226562 0.09887695 C24.89173897 0.95764747 26.34990442 2.19818371 28.90625 5.76171875 C29.55322266 9.26342773 29.55322266 9.26342773 29.5703125 13.2578125 C29.57509613 13.9689772 29.57987976 14.68014191 29.58480835 15.41285706 C29.58819848 16.91140973 29.57905774 18.41003724 29.55810547 19.90844727 C29.53135796 22.19001007 29.55785333 24.46663756 29.58984375 26.74804688 C29.58653871 28.20964618 29.5801305 29.67124243 29.5703125 31.1328125 C29.56185303 33.11172485 29.56185303 33.11172485 29.55322266 35.13061523 C28.69065535 39.97173357 27.5851 41.49978032 23.90625 44.76171875 C20.57226562 45.53808594 20.57226562 45.53808594 16.8125 45.55859375 C16.14335571 45.56433411 15.47421143 45.57007446 14.78479004 45.57598877 C13.37618607 45.58005466 11.96746723 45.56910081 10.55908203 45.54394531 C8.41050324 45.51178242 6.26944044 45.54365913 4.12109375 45.58203125 C2.74737934 45.57806607 1.37366959 45.57037798 0 45.55859375 C-1.24072266 45.55182617 -2.48144531 45.54505859 -3.75976562 45.53808594 C-7.38927224 44.69290206 -8.99736406 43.55457906 -11.18560791 40.5256958 C-12.74480772 37.49710291 -12.74286921 34.75450976 -12.7578125 31.38671875 C-12.76259613 30.69916504 -12.76737976 30.01161133 -12.77230835 29.30322266 C-12.77569239 27.85772395 -12.76659469 26.41214715 -12.74560547 24.96679688 C-12.71880796 22.76647741 -12.74539322 20.57125645 -12.77734375 18.37109375 C-12.77403937 16.95962427 -12.76763254 15.54815794 -12.7578125 14.13671875 C-12.75217285 12.86570313 -12.7465332 11.5946875 -12.74072266 10.28515625 C-11.386828 2.91179486 -7.57840757 0.00246052 0 0 Z " fill="#272324" transform="translate(587.09375,143.23828125)"/>
<path d="M0 0 C0.66 0.33 1.32 0.66 2 1 C-3.61 6.61 -9.22 12.22 -15 18 C-15 12.78391019 -10.50427167 9.58349868 -7 6 C-4.72395669 3.90689101 -2.40160434 1.95130352 0 0 Z " fill="#555252" transform="translate(229,20)"/>
</svg>
